<?xml version="1.0" encoding="UTF-8"?>
<svg width="15px" height="12px" viewBox="0 0 15 12" version="1.1" xmlns="http://www.w3.org/2000/svg" xmlns:xlink="http://www.w3.org/1999/xlink">
    <!-- Generator: Sketch 48.2 (47327) - http://www.bohemiancoding.com/sketch -->
    <title>Page 1</title>
    <desc>Created with Sketch.</desc>
    <defs></defs>
    <g id="04" stroke="none" stroke-width="1" fill="none" fill-rule="evenodd" transform="translate(-752.000000, -766.000000)">
        <g id="btn" transform="translate(614.000000, 744.000000)" fill="#FFFFFF">
            <g id="Group-7" transform="translate(61.000000, 22.000000)">
                <path d="M86.6732931,11.7051376 L91.7150885,6.68655251 C91.9045378,6.49798325 92,6.24564864 92,5.99415305 C92,5.74265746 91.9053807,5.49116187 91.7150885,5.3017536 L86.6732931,0.283168514 C86.2937623,-0.0943895046 85.6615622,-0.0943895046 85.2820315,0.283168514 C84.9025007,0.660936287 84.9025007,1.29019965 85.2820315,1.66796742 L88.616676,4.98712192 L77.9796994,4.98712192 C77.4421186,4.98712192 77,5.42802578 77,5.96227038 C77,6.49714424 77.4429615,6.93720908 77.9796994,6.93720908 L88.695701,6.93720908 L85.2976257,10.3194997 C84.918095,10.6972674 84.918095,11.3265308 85.2976257,11.7042986 C85.6771565,12.0984272 86.2615201,12.0984272 86.6732931,11.7051376 Z" id="Page-1"></path>
            </g>
        </g>
    </g>
</svg>